<svg width="300px" height="300px" fill="#555555" version="1.1" viewBox="-949 949 100 100" xml:space="preserve" xmlns="http://www.w3.org/2000/svg">
  <path stroke-width="20" d="m-865.6 967h-66.7c-7.8 0-14.1 6.3-14.1 14.1v39.6c0 7.8 6.3 14.1 14.1 14.1h66.7c7.8 0 14.1-6.3 14.1-14.1v-39.6c0-7.7-6.3-14.1-14.1-14.1zm-17.5 34 23.8-23.8c0.7 1.2 1.2 2.5 1.2 4v39.6c0 1.5-0.4 2.8-1.2 4l-23.8-23.8zm17.5-27.3h0.4l-30.8 30.8c-0.8 0.8-1.9 1.2-3 1.2s-2.2-0.4-3-1.2l-30.8-30.8h0.4 66.8zm-73.1 51.1c-0.7-1.2-1.2-2.5-1.2-4v-39.6c0-1.5 0.4-2.9 1.2-4l23.8 23.8-23.8 23.8zm6.3 3.5h-0.5l22.7-22.7 3.5 3.5c2.1 2 4.8 3.2 7.7 3.2s5.6-1.1 7.7-3.2l3.5-3.5 22.7 22.7h-0.5-66.8z"/>
</svg>